<svg width="30" height="48" viewBox="0 0 30 48" fill="none" xmlns="http://www.w3.org/2000/svg">
<path d="M2.35717 20.5364C2.39314 20.8704 2.42911 21.2221 2.46508 21.5562C2.50104 21.8902 2.555 22.2419 2.60895 22.5759C2.69888 23.2617 2.82477 23.9298 2.98663 24.5803C3.31036 25.899 3.75999 27.2001 4.4614 28.343C4.62326 28.6419 4.83908 28.888 5.03691 29.1694C5.25273 29.4331 5.48653 29.6617 5.72034 29.9254C5.97213 30.1364 6.22391 30.3825 6.49369 30.5759L6.92532 30.8573C7.0692 30.9452 7.21308 31.0507 7.35696 31.121C8.56195 31.754 9.94678 32.0353 11.3316 32.1232C10.9899 32.1232 10.6302 32.1232 10.2885 32.1232C9.9288 32.1232 9.58709 32.0529 9.24537 32.0177C8.54396 31.8946 7.87852 31.6836 7.23107 31.3847C6.90734 31.2441 6.61958 31.0331 6.29585 30.8573C6.00809 30.6639 5.73832 30.4177 5.45056 30.2067C5.21676 29.943 4.96497 29.6968 4.73117 29.4331C4.53334 29.1518 4.29953 28.8705 4.11968 28.5716C3.3823 27.3584 2.93268 26.0221 2.68089 24.6682C2.41112 23.2792 2.3212 21.9078 2.35717 20.5364Z" fill="#7D2335"/>
<path d="M30.0002 47.3495V48.0001H25.7198C23.2199 48.0001 21.6013 46.5231 20.702 44.466L19.8028 42.4792L17.7345 37.9605C17.159 36.7297 16.0799 35.7979 14.749 35.4286V35.3407C15.7382 35.2352 16.6374 35.0594 17.4468 34.7957H19.0474C21.5473 34.7957 23.1659 36.2726 24.0652 38.3297L24.9644 40.3165L27.0327 44.8352C27.3205 45.4506 27.7341 45.9957 28.2377 46.4176C28.7413 46.8396 29.3348 47.1737 30.0002 47.3495Z" fill="#7D2335"/>
<path d="M17.3385 46.5935H7.14111V47.3847H17.3385V46.5935Z" fill="#7D2335"/>
<path d="M13.5617 38.7869H13.166V46.9979H13.5617V38.7869Z" fill="#7D2335"/>
<path d="M2.06926 29.3451C0.918231 27.1121 0.378685 24.6154 0.144882 22.1363C-0.0889218 19.6396 -0.016981 17.1253 0.198838 14.6462C0.432641 12.167 0.810322 9.68792 1.33188 7.24396C1.85345 4.8 2.46493 2.37363 3.25627 0C2.93254 1.21319 2.64478 2.40879 2.37501 3.63956C2.10523 4.85275 1.85345 6.06594 1.63763 7.29671C1.188 9.74067 0.810323 12.2022 0.612489 14.6813C0.378686 17.1605 0.306746 19.6396 0.46861 22.1187C0.54055 23.3495 0.7204 24.5802 0.972188 25.7934C1.20599 27.0066 1.56569 28.2022 2.06926 29.3451Z" fill="#7D2335"/>
<path d="M19.6768 0.386719C20.3422 2.65485 25.9895 22.734 19.6228 31.1032C17.7704 33.5296 15.0367 34.7604 11.4937 34.7604C9.94699 34.7604 8.54417 34.5318 7.33918 34.0747L6.22412 33.6527L7.14135 34.4087C8.47223 35.4988 10.1268 36.167 12.1052 36.4131C12.6987 36.4835 13.3102 36.5186 13.9396 36.5186C14.1375 36.5186 14.3173 36.5186 14.4972 36.501C14.7849 36.501 15.0727 36.4659 15.3424 36.4483C16.2597 36.3604 17.105 36.1846 17.8603 35.9384C20.2343 35.1472 22.0148 33.5648 23.1659 31.2087C27.8059 21.767 19.6768 0.386719 19.6768 0.386719Z" fill="#7D2335"/>
<path d="M12.1766 36.9582C12.0867 36.4308 11.8889 35.956 11.6011 35.5516C11.0256 35.622 10.4321 35.6571 9.80265 35.6571C9.60481 35.6571 9.42497 35.6571 9.24512 35.6395V35.6571C9.29907 35.6747 9.33504 35.6923 9.389 35.7099C9.67675 35.8154 9.96451 36.0088 10.1623 36.2725L10.2523 36.378C10.4321 36.6242 10.558 36.9055 10.612 37.1868C10.6479 37.556 10.6479 40.211 10.6479 42.6725V46.9978L12.2666 47.0154V39.6483C12.2486 38.3297 12.2126 37.2923 12.1766 36.9582Z" fill="#7D2335"/>
</svg>
