<svg width="247" height="159" viewBox="0 0 247 159" fill="none" xmlns="http://www.w3.org/2000/svg">
<path d="M96.2838 45.3844C96.3613 46.1227 96.4387 46.8998 96.5161 47.6381C96.5936 48.3763 96.7097 49.1535 96.8259 49.8917C97.0194 51.4071 97.2904 52.8837 97.6389 54.3213C98.3357 57.2356 99.3036 60.1109 100.813 62.6366C101.162 63.2972 101.626 63.8411 102.052 64.4628C102.517 65.0457 103.02 65.5508 103.524 66.1337C104.066 66.5999 104.608 67.1439 105.188 67.5713L106.117 68.193C106.427 68.3873 106.737 68.6205 107.047 68.7759C109.64 70.1747 112.621 70.7964 115.603 70.9907C114.867 70.9907 114.093 70.9907 113.357 70.9907C112.583 70.9907 111.847 70.8353 111.112 70.7576C109.602 70.4856 108.169 70.0193 106.776 69.3587C106.079 69.0479 105.459 68.5816 104.762 68.193C104.143 67.7656 103.562 67.2216 102.943 66.7554C102.439 66.1725 101.897 65.6285 101.394 65.0457C100.968 64.424 100.465 63.8023 100.078 63.1417C98.4906 60.4606 97.5227 57.5076 96.9807 54.5156C96.4 51.446 96.2064 48.4152 96.2838 45.3844Z" fill="white"/>
<path d="M155.789 104.64V106.078H146.575C141.193 106.078 137.709 102.814 135.773 98.2677L133.837 93.8769L129.385 83.8909C128.146 81.1709 125.823 79.1115 122.958 78.2956V78.1013C125.088 77.8681 127.024 77.4796 128.766 76.8967H132.211C137.593 76.8967 141.077 80.1607 143.013 84.7068L144.948 89.0976L149.401 99.0837C150.02 100.444 150.911 101.648 151.995 102.581C153.079 103.513 154.356 104.252 155.789 104.64Z" fill="white"/>
<path d="M128.533 102.969H106.582V104.718H128.533V102.969Z" fill="white"/>
<path d="M120.403 85.7172H119.551V103.863H120.403V85.7172Z" fill="white"/>
<path d="M95.6643 64.8512C93.1866 59.9164 92.0251 54.3988 91.5218 48.9201C91.0185 43.4025 91.1734 37.846 91.638 32.3673C92.1413 26.8886 92.9543 21.4098 94.077 16.0088C95.1997 10.6078 96.516 5.2456 98.2195 0C97.5226 2.68108 96.9032 5.32331 96.3225 8.04325C95.7417 10.7243 95.1997 13.4054 94.7352 16.1254C93.7673 21.5264 92.9543 26.9663 92.5284 32.445C92.0251 37.9237 91.8703 43.4025 92.2187 48.8812C92.3736 51.6012 92.7607 54.3211 93.3027 57.0022C93.806 59.6833 94.5803 62.3255 95.6643 64.8512Z" fill="white"/>
<path d="M133.566 0.854736C134.998 5.8672 147.155 50.2411 133.45 68.7367C129.462 74.0989 123.578 76.8188 115.951 76.8188C112.621 76.8188 109.602 76.3137 107.008 75.3034L104.607 74.3708L106.582 76.0417C109.447 78.4508 113.009 79.9273 117.267 80.4713C118.545 80.6267 119.861 80.7044 121.216 80.7044C121.642 80.7044 122.029 80.7044 122.416 80.6656C123.036 80.6656 123.655 80.5879 124.236 80.549C126.21 80.3547 128.03 79.9662 129.656 79.4222C134.766 77.6736 138.599 74.1766 141.077 68.9698C151.065 48.104 133.566 0.854736 133.566 0.854736Z" fill="white"/>
<path d="M117.422 81.6759C117.228 80.5102 116.802 79.4611 116.183 78.5674C114.944 78.7228 113.666 78.8005 112.311 78.8005C111.886 78.8005 111.498 78.8005 111.111 78.7617V78.8005C111.227 78.8394 111.305 78.8782 111.421 78.9171C112.04 79.1502 112.66 79.5776 113.086 80.1605L113.279 80.3936C113.666 80.9376 113.937 81.5593 114.054 82.181C114.131 82.997 114.131 88.8643 114.131 94.3042V103.863L117.615 103.902V87.6209C117.577 84.7067 117.499 82.4142 117.422 81.6759Z" fill="white"/>
<path d="M5.22649 153.094H4.06505V158.184L5.34263 158.456V158.728H0V158.456L1.08401 158.184V146.566L0 146.294V146.022H4.80063C9.13668 146.022 10.5691 147.459 10.5691 149.558C10.5691 152.899 6.23307 152.899 6.23307 152.899C6.23307 152.899 8.47853 152.899 9.21411 154.531L10.8401 158.145L11.7306 158.417V158.689H9.21411C8.13009 158.689 7.43323 158.067 7.04608 157.135L5.22649 153.094ZM4.80063 152.627C6.42665 152.627 7.51066 151.539 7.51066 149.558C7.51066 147.576 6.42665 146.488 4.80063 146.488H4.06505V152.666H4.80063V152.627Z" fill="white"/>
<path d="M33.2557 152.2C33.4493 151.19 34.0688 150.374 34.0688 150.374H34.6108V154.454H34.0688C34.0688 154.454 33.4493 153.638 33.2557 152.627H31.1651V158.261H35.4238C35.4238 156.357 36.5852 155.464 36.5852 155.464H37.1659V158.728H27.1001V158.456L28.1841 158.184V146.566L27.1001 146.294V146.022H36.7788V149.286H36.2368C36.2368 149.286 35.0753 148.392 35.0753 146.488H31.2039V152.2H33.2557Z" fill="white"/>
<path d="M59.582 156.28C59.582 153.482 53.1553 153.288 53.1553 148.936C53.1553 147.227 54.5878 145.75 57.5688 145.75C59.2723 145.75 60.4724 146.916 60.4724 146.916C60.8209 146.294 61.479 145.905 61.479 145.905H61.9436V149.364H61.208C61.208 149.364 60.395 146.177 57.956 146.177C57.0655 146.177 56.2525 146.993 56.2525 148.159C56.2525 151.229 62.6792 151.423 62.6792 155.425C62.6792 157.329 61.0531 158.961 57.7237 158.961C55.6331 158.961 54.4716 157.795 54.4716 157.795C54.1232 158.417 53.4651 158.806 53.4651 158.806H53.0005V155.347H53.7361C53.7361 155.347 54.5491 158.534 57.3365 158.534C58.6528 158.534 59.582 157.64 59.582 156.28Z" fill="white"/>
<path d="M84.5917 152.2C84.7853 151.19 85.4047 150.374 85.4047 150.374H85.9467V154.454H85.4047C85.4047 154.454 84.7853 153.638 84.5917 152.627H82.5011V158.261H86.7597C86.7597 156.357 87.9212 155.464 87.9212 155.464H88.4632V158.728H78.436V158.456L79.5201 158.184V146.566L78.436 146.294V146.022H88.1147V149.286H87.5727C87.5727 149.286 86.4113 148.392 86.4113 146.488H82.5398V152.2H84.5917Z" fill="white"/>
<path d="M109.795 153.094H108.633V158.184L109.911 158.456V158.728H104.568V158.456L105.652 158.184V146.566L104.568 146.294V146.022H109.369C113.705 146.022 115.137 147.459 115.137 149.558C115.137 152.899 110.801 152.899 110.801 152.899C110.801 152.899 113.047 152.899 113.782 154.531L115.408 158.145L116.299 158.417V158.689H113.782C112.698 158.689 112.002 158.067 111.614 157.135L109.795 153.094ZM109.369 152.627C110.995 152.627 112.079 151.539 112.079 149.558C112.079 147.576 110.995 146.488 109.369 146.488H108.633V152.666H109.369V152.627Z" fill="white"/>
<path d="M140.806 146.838L139.451 146.294V146.022H142.78V146.294L141.348 146.838L136.934 158.922H136.392L130.972 146.566L130.082 146.294V146.022H132.25C133.605 146.022 134.34 146.76 134.689 147.576L137.902 154.881L140.806 146.838Z" fill="white"/>
<path d="M157.801 146.294V146.022H162.95V146.294L161.866 146.566V158.184L162.95 158.456V158.728H157.801V158.456L158.885 158.184V146.566L157.801 146.294Z" fill="white"/>
<path d="M189.237 146.838L187.805 146.294V146.022H191.251V146.294L189.818 146.838V159H189.276L180.875 149.091V157.912L182.307 158.456V158.728H178.862V158.456L180.294 157.912V146.643L179.017 146.294V146.022H180.914C182.346 146.022 183.004 146.76 183.43 147.304L189.199 154.104V146.838H189.237Z" fill="white"/>
<path d="M207.046 146.294V146.022H212.195V146.294L211.111 146.566V152.2H214.983V146.566L213.899 146.294V146.022H219.048V146.294L217.964 146.566V158.184L219.048 158.456V158.728H213.899V158.456L214.983 158.184V152.627H211.111V158.184L212.195 158.456V158.728H207.046V158.456L208.13 158.184V146.566L207.046 146.294Z" fill="white"/>
<path d="M241.116 159C237.593 159 235.231 156.63 235.231 152.394C235.231 148.12 237.593 145.75 241.116 145.75C244.639 145.75 247 148.12 247 152.394C247 156.63 244.677 159 241.116 159ZM241.116 146.1C239.838 146.1 238.406 147.537 238.406 152.356C238.406 157.174 239.838 158.611 241.116 158.611C242.393 158.611 243.826 157.174 243.826 152.356C243.826 147.576 242.393 146.1 241.116 146.1Z" fill="white"/>
</svg>
