<svg width="280" height="14" viewBox="0 0 280 14" fill="none" xmlns="http://www.w3.org/2000/svg">
<path d="M5.92476 7.75926H4.60815V13.1376L6.05642 13.4249V13.7123H0V13.4249L1.22884 13.1376V0.861888L0 0.574498V0.287109H5.442C10.3574 0.287109 11.9812 1.80617 11.9812 4.02318C11.9812 7.55398 7.06583 7.55397 7.06583 7.55397C7.06583 7.55397 9.61128 7.55397 10.4451 9.27832L12.2884 13.0965L13.2978 13.3839V13.6713H10.4451C9.21629 13.6713 8.42633 13.0144 7.98745 12.029L5.92476 7.75926ZM5.442 7.26658C7.28526 7.26658 8.5141 6.11703 8.5141 4.02318C8.5141 1.92934 7.28526 0.779774 5.442 0.779774H4.60815V7.30764H5.442V7.26658Z" fill="#7D2335"/>
<path d="M37.6997 6.81496C37.9192 5.74751 38.6214 4.88535 38.6214 4.88535H39.2358V9.1962H38.6214C38.6214 9.1962 37.9192 8.33403 37.6997 7.26658H35.3298V13.2197H40.1574C40.1574 11.2079 41.474 10.2636 41.474 10.2636H42.1323V13.7123H30.7217V13.4249L31.9505 13.1376V0.861888L30.7217 0.574498V0.287109H41.6935V3.73578H41.079C41.079 3.73578 39.7624 2.79151 39.7624 0.779774H35.3737V6.81496H37.6997Z" fill="#7D2335"/>
<path d="M67.5419 11.1261C67.5419 8.17009 60.2566 7.96482 60.2566 3.36658C60.2566 1.56013 61.8804 0 65.2597 0C67.1908 0 68.5513 1.23168 68.5513 1.23168C68.9462 0.574792 69.6923 0.164227 69.6923 0.164227H70.219V3.81818H69.3851C69.3851 3.81818 68.4635 0.451615 65.6986 0.451615C64.6892 0.451615 63.7676 1.31379 63.7676 2.54546C63.7676 5.78886 71.0528 5.99414 71.0528 10.2229C71.0528 12.2346 69.2096 13.9589 65.4353 13.9589C63.0654 13.9589 61.7488 12.7273 61.7488 12.7273C61.3538 13.3842 60.6077 13.7947 60.6077 13.7947H60.0811V10.1408H60.9149C60.9149 10.1408 61.8365 13.5073 64.9964 13.5073C66.4886 13.5073 67.5419 12.5631 67.5419 11.1261Z" fill="#7D2335"/>
<path d="M95.8931 6.81496C96.1125 5.74751 96.8147 4.88535 96.8147 4.88535H97.4292V9.1962H96.8147C96.8147 9.1962 96.1125 8.33403 95.8931 7.26658H93.5232V13.2197H98.3508C98.3508 11.2079 99.6674 10.2636 99.6674 10.2636H100.282V13.7123H88.915V13.4249L90.1439 13.1376V0.861888L88.915 0.574498V0.287109H99.8868V3.73578H99.2724C99.2724 3.73578 97.9558 2.79151 97.9558 0.779774H93.5671V6.81496H95.8931Z" fill="#7D2335"/>
<path d="M124.463 7.75926H123.146V13.1376L124.595 13.4249V13.7123H118.538V13.4249L119.767 13.1376V0.861888L118.538 0.574498V0.287109H123.98C128.895 0.287109 130.519 1.80617 130.519 4.02318C130.519 7.55398 125.604 7.55397 125.604 7.55397C125.604 7.55397 128.149 7.55397 128.983 9.27832L130.826 13.0965L131.836 13.3839V13.6713H128.983C127.754 13.6713 126.964 13.0144 126.526 12.029L124.463 7.75926ZM123.98 7.26658C125.823 7.26658 127.052 6.11703 127.052 4.02318C127.052 1.92934 125.823 0.779774 123.98 0.779774H123.146V7.30764H123.98V7.26658Z" fill="#7D2335"/>
<path d="M159.618 1.14928L158.082 0.574499V0.287109H161.856V0.574499L160.232 1.14928L155.229 13.9176H154.615L148.47 0.861888L147.461 0.574499V0.287109H149.919C151.455 0.287109 152.289 1.06716 152.684 1.92933L156.326 9.64783L159.618 1.14928Z" fill="#7D2335"/>
<path d="M178.885 0.574498V0.287109H184.722V0.574498L183.493 0.861888V13.1376L184.722 13.4249V13.7123H178.885V13.4249L180.114 13.1376V0.861888L178.885 0.574498Z" fill="#7D2335"/>
<path d="M214.519 1.14928L212.895 0.574499V0.287109H216.801V0.574499L215.177 1.14928V13.9997H214.562L205.039 3.53051V12.8502L206.663 13.425V13.7123H202.757V13.425L204.381 12.8502V0.944001L202.932 0.574499V0.287109H205.083C206.707 0.287109 207.453 1.06716 207.936 1.64194L214.475 8.82671V1.14928H214.519Z" fill="#7D2335"/>
<path d="M234.709 0.574498V0.287109H240.546V0.574498L239.317 0.861888V6.81496H243.706V0.861888L242.477 0.574498V0.287109H248.314V0.574498L247.085 0.861888V13.1376L248.314 13.4249V13.7123H242.477V13.4249L243.706 13.1376V7.26658H239.317V13.1376L240.546 13.4249V13.7123H234.709V13.4249L235.938 13.1376V0.861888L234.709 0.574498Z" fill="#7D2335"/>
<path d="M273.329 14C269.335 14 266.658 11.4956 266.658 7.02054C266.658 2.50441 269.335 0 273.329 0C277.323 0 280 2.50441 280 7.02054C280 11.4956 277.367 14 273.329 14ZM273.329 0.369502C271.881 0.369502 270.257 1.88857 270.257 6.97948C270.257 12.0704 271.881 13.5894 273.329 13.5894C274.777 13.5894 276.401 12.0704 276.401 6.97948C276.401 1.92962 274.777 0.369502 273.329 0.369502Z" fill="#7D2335"/>
</svg>
